<?xml version="1.0" standalone="no"?>
<!DOCTYPE svg PUBLIC "-//W3C//DTD SVG 20010904//EN"
 "http://www.w3.org/TR/2001/REC-SVG-20010904/DTD/svg10.dtd">
<svg version="1.0" xmlns="http://www.w3.org/2000/svg"
 width="180.000000pt" height="180.000000pt" viewBox="0 0 180.000000 180.000000"
 preserveAspectRatio="xMidYMid meet">

<g transform="translate(0.000000,180.000000) scale(0.100000,-0.100000)"
fill="#000000" stroke="none">
<path d="M131 1785 c-59 -18 -98 -59 -116 -119 -22 -74 -22 -1458 0 -1532 18
-61 58 -101 120 -120 72 -21 1458 -21 1531 1 61 18 101 58 120 120 21 71 21
1459 0 1530 -19 62 -59 102 -120 120 -71 21 -1467 21 -1535 0z m419 -445 c0
-10 34 -256 49 -360 6 -36 16 -105 22 -154 l13 -90 17 125 c10 68 23 160 29
204 6 44 16 112 21 150 5 39 12 85 15 103 l5 33 102 -3 102 -3 0 -445 0 -445
-67 -3 -68 -3 -1 313 c-1 187 -5 295 -9 268 -5 -25 -16 -94 -25 -155 -9 -60
-20 -135 -25 -165 -5 -30 -13 -89 -19 -130 -20 -139 -14 -130 -81 -130 -64 0
-65 0 -75 76 -4 27 -17 119 -31 204 -13 85 -28 187 -34 225 -5 39 -12 81 -14
95 -2 14 -4 -116 -5 -287 l-1 -313 -65 0 -65 0 0 450 0 450 105 0 c60 0 105
-4 105 -10z m807 -18 c65 -34 86 -83 86 -202 1 -102 -13 -145 -54 -174 -21
-14 -21 -15 13 -45 45 -39 58 -86 58 -202 0 -108 -18 -158 -69 -202 -46 -39
-95 -48 -238 -45 l-128 3 -3 435 c-1 239 0 441 3 448 4 11 35 13 148 10 124
-3 147 -6 184 -26z"/>
<path d="M1170 1100 l0 -110 44 0 c71 0 92 35 84 135 -6 71 -19 85 -79 85
l-49 0 0 -110z"/>
<path d="M1170 720 l0 -130 53 0 c78 0 87 14 87 128 0 112 -14 132 -92 132
l-48 0 0 -130z"/>
</g>
</svg>
